Coordinates
version=1
nRows=43
nColumns=12
inDegrees=yes

Units are S.I. units (second, meters, Newtons, ...)
Angles are in degrees

endheader
time	SC_y	SC_z	SC_x	AC_y	AC_z	AC_x	GH_y	GH_z	GH_yy	EL_x	PS_y
       0.0              -28.66          17.35          76.23          60.42         -4.453         -15.01          26.59          31.38         -44.93          51.71          125.2
   0.04101              -28.66          17.35          76.23          60.41         -4.452         -15.01          26.59          31.38         -44.94          51.72          125.2
   0.08202              -28.66          17.35          76.22          60.41         -4.451         -15.01          26.59          31.38         -44.96          51.73          125.2
     0.123              -28.66          17.35          76.22           60.4         -4.451         -15.01          26.59          31.39         -44.97          51.74          125.3
     0.164              -28.65          17.34          76.21           60.4          -4.45         -15.01          26.59          31.39         -44.98          51.76          125.3
     0.205              -28.65          17.34           76.2          60.39         -4.449         -15.01          26.59          31.39         -44.99          51.77          125.3
     0.246              -28.65          17.34          76.19          60.39         -4.448         -15.01          26.58          31.39         -45.01          51.79          125.3
    0.2871              -28.65          17.34          76.18          60.38         -4.447         -15.01          26.58          31.39         -45.02           51.8          125.3
    0.3281              -28.64          17.34          76.17          60.37         -4.445         -15.01          26.58          31.39         -45.04          51.82          125.3
    0.3691              -28.64          17.34          76.16          60.37         -4.444         -15.01          26.58           31.4         -45.06          51.84          125.3
    0.4101              -28.63          17.34          76.15          60.36         -4.443         -15.01          26.58           31.4         -45.07          51.86          125.3
    0.4511              -28.63          17.34          76.14          60.35         -4.441         -15.02          26.57           31.4         -45.09          51.88          125.3
    0.4921              -28.63          17.34          76.13          60.34          -4.44         -15.02          26.57           31.4         -45.12           51.9          125.3
    0.5331              -28.62          17.33          76.11          60.33         -4.438         -15.02          26.57          31.41         -45.14          51.92          125.3
    0.5741              -28.62          17.33           76.1          60.32         -4.436         -15.02          26.57          31.41         -45.17          51.95          125.3
    0.6151              -28.61          17.33          76.08          60.31         -4.434         -15.02          26.56          31.41         -45.19          51.98          125.3
    0.6561              -28.61          17.33          76.06           60.3         -4.432         -15.02          26.56          31.41         -45.22          52.01          125.3
    0.6971               -28.6          17.33          76.04          60.29          -4.43         -15.02          26.56          31.42         -45.26          52.05          125.3
    0.7381              -28.59          17.32          76.02          60.27         -4.427         -15.03          26.55          31.42         -45.29          52.08          125.4
    0.7792              -28.58          17.32           76.0          60.25         -4.424         -15.03          26.55          31.43         -45.33          52.12          125.4
    0.8202              -28.58          17.32          75.97          60.24         -4.421         -15.03          26.54          31.43         -45.37          52.17          125.4
    0.8612              -28.57          17.32          75.94          60.22         -4.418         -15.03          26.54          31.44         -45.42          52.22          125.4
    0.9022              -28.56          17.31          75.91           60.2         -4.414         -15.04          26.53          31.44         -45.47          52.27          125.4
    0.9432              -28.54          17.31          75.88          60.17          -4.41         -15.04          26.53          31.45         -45.53          52.33          125.4
    0.9842              -28.53           17.3          75.84          60.15         -4.405         -15.04          26.52          31.46         -45.59           52.4          125.5
     1.025              -28.52           17.3           75.8          60.12           -4.4         -15.05          26.51          31.47         -45.66          52.47          125.5
     1.066               -28.5          17.29          75.75          60.08         -4.395         -15.05           26.5          31.47         -45.74          52.56          125.5
     1.107              -28.48          17.29           75.7          60.05         -4.388         -15.06          26.49          31.49         -45.83          52.65          125.5
     1.148              -28.46          17.28          75.64          60.01         -4.381         -15.06          26.48           31.5         -45.94          52.76          125.6
     1.189              -28.44          17.27          75.57          59.96         -4.372         -15.07          26.47          31.51         -46.05          52.88          125.6
      1.23              -28.42          17.27          75.49           59.9         -4.363         -15.07          26.46          31.53         -46.18          53.02          125.6
     1.271              -28.39          17.26           75.4          59.84         -4.352         -15.08          26.44          31.54         -46.33          53.18          125.7
     1.312              -28.35          17.24          75.29          59.77          -4.34         -15.09          26.42          31.56         -46.51          53.36          125.7
     1.353              -28.31          17.23          75.17          59.69         -4.325          -15.1           26.4          31.59         -46.71          53.57          125.8
     1.394              -28.26          17.21          75.03          59.59         -4.308         -15.12          26.37          31.61         -46.95          53.82          125.9
     1.435              -28.21           17.2          74.86          59.48         -4.288         -15.13          26.34          31.65         -47.23          54.11          126.0
     1.476              -28.14          17.17          74.66          59.34         -4.264         -15.15          26.31          31.68         -47.56          54.46          126.1
     1.517              -28.06          17.15          74.42          59.18         -4.235         -15.17          26.26          31.73         -47.96          54.88          126.2
     1.558              -27.97          17.12          74.14          58.98           -4.2          -15.2          26.21          31.79         -48.44          55.38          126.4
     1.599              -27.85          17.08          73.78          58.74         -4.158         -15.23          26.15          31.85         -49.03           56.0          126.6
      1.64              -27.71          17.03          73.35          58.44         -4.106         -15.27          26.07          31.94         -49.76          56.76          126.8
     1.681              -27.53          16.97          72.81          58.07          -4.04         -15.32          25.97          32.04         -50.67          57.71          127.1
     1.722               -27.3          16.89          72.12           57.6         -3.958         -15.38          25.85          32.17         -51.81           58.9          127.4
